<svg width="47" height="17" viewBox="0 0 47 17" fill="none" xmlns="http://www.w3.org/2000/svg">
<g clip-path="url(#clip0_1728_120)">
<path d="M23.8831 4.85038C23.8805 4.93012 23.8467 5.00571 23.7889 5.06117C23.7312 5.11663 23.654 5.14762 23.5736 5.14757H20.3854C20.1764 5.14757 20.0019 4.97935 20.0019 4.77468C20.0019 3.85115 19.6801 3.40143 19.0216 3.40143C18.3632 3.40143 17.9385 3.80292 17.9261 4.50441C17.912 5.28663 18.3575 5.99765 19.6258 7.21894C21.2956 8.77442 21.9648 10.1522 21.9326 11.9734C21.8801 14.9184 19.8636 16.8221 16.795 16.8221C15.228 16.8221 14.0308 16.4061 13.2346 15.5851C12.4265 14.7513 12.0561 13.5278 12.1334 11.9488C12.1361 11.8689 12.1699 11.7933 12.2278 11.7378C12.2857 11.6823 12.363 11.6514 12.4435 11.6516H15.7413C15.7872 11.6523 15.8324 11.6631 15.8736 11.6833C15.9148 11.7035 15.951 11.7325 15.9796 11.7682C16.0045 11.7977 16.0228 11.8323 16.0331 11.8694C16.0434 11.9066 16.0456 11.9455 16.0395 11.9835C16.0027 12.5532 16.1027 12.9788 16.3286 13.2143C16.4731 13.3669 16.6747 13.4442 16.926 13.4442C17.5353 13.4442 17.8922 13.017 17.9058 12.2723C17.9171 11.6286 17.7121 11.0645 16.5951 9.92338C15.1523 8.52377 13.8586 7.07763 13.8987 4.80384C13.9224 3.48498 14.4498 2.27884 15.3844 1.40745C16.3726 0.48672 17.7239 0 19.2927 0C20.8642 0.0112145 22.0552 0.45644 22.8328 1.32334C23.5691 2.14482 23.9232 3.33134 23.8842 4.85038H23.8831Z" fill="#00E559"/>
<path d="M33.7653 16.2681L33.7861 0.605034C33.7868 0.56581 33.7795 0.526861 33.7647 0.490476C33.7499 0.454092 33.728 0.421006 33.7001 0.393162C33.6723 0.365318 33.6392 0.343279 33.6026 0.328338C33.5661 0.313398 33.5269 0.305858 33.4874 0.306161H28.5531C28.3871 0.306161 28.3142 0.448028 28.2668 0.541671L21.1223 16.1722V16.175L21.1194 16.179C21.0404 16.3713 21.1906 16.5771 21.4001 16.5771H24.8493C25.0356 16.5771 25.1593 16.521 25.2197 16.4044L25.9047 14.7698C25.9888 14.5517 26.0046 14.5315 26.2441 14.5315H29.5396C29.7689 14.5315 29.7734 14.536 29.77 14.7586L29.6961 16.2782C29.6954 16.3174 29.7027 16.3563 29.7175 16.3926C29.7322 16.429 29.7541 16.4621 29.7819 16.4899C29.8096 16.5177 29.8427 16.5398 29.8792 16.5547C29.9156 16.5697 29.9548 16.5773 29.9942 16.5771H33.479C33.5221 16.5776 33.5648 16.5688 33.6041 16.5511C33.6435 16.5335 33.6784 16.5075 33.7065 16.475C33.7308 16.4468 33.7486 16.4137 33.7587 16.378C33.7689 16.3423 33.7711 16.3048 33.7653 16.2681ZM27.6609 11.0387C27.6349 11.0388 27.6089 11.0379 27.583 11.0359C27.5709 11.0349 27.5591 11.0313 27.5486 11.0253C27.5381 11.0193 27.529 11.0111 27.522 11.0013C27.515 10.9915 27.5103 10.9802 27.5081 10.9684C27.506 10.9565 27.5065 10.9443 27.5095 10.9327C27.5163 10.9103 27.5259 10.8794 27.54 10.8419L30.0111 4.77019C30.0334 4.71029 30.059 4.65169 30.088 4.59468C30.128 4.51282 30.1766 4.50721 30.1919 4.56777C30.2048 4.61823 29.9084 10.8021 29.9084 10.8021C29.8852 11.0336 29.8745 11.0432 29.6447 11.0622L27.6631 11.0398H27.6586L27.6603 11.0387L27.6609 11.0387Z" fill="#00E559"/>
<path d="M40.7947 0.306126H38.175C38.0367 0.306126 37.8814 0.379022 37.8453 0.542757L34.1996 16.2602C34.1916 16.2957 34.192 16.3325 34.2006 16.3678C34.2092 16.403 34.2258 16.4359 34.2493 16.4638C34.2797 16.4993 34.3175 16.5278 34.3601 16.5474C34.4027 16.567 34.4491 16.5771 34.496 16.5771H37.7702C37.9463 16.5771 38.0666 16.4913 38.0994 16.3427L38.4969 14.5612C38.5252 14.4221 38.4766 14.3145 38.3512 14.2494C38.2924 14.2193 38.2337 14.1891 38.175 14.1586L37.6075 13.8653L37.0428 13.5726L36.8243 13.4599C36.8065 13.4511 36.7916 13.4375 36.7813 13.4206C36.771 13.4037 36.7657 13.3843 36.7661 13.3646C36.7669 13.3354 36.7791 13.3076 36.8002 13.2873C36.8213 13.267 36.8496 13.2556 36.8791 13.2558L38.6731 13.2637C39.2096 13.2665 39.7466 13.2289 40.2746 13.1324C43.9903 12.4511 46.458 9.49606 46.5292 5.47501C46.5902 2.04329 44.6611 0.304443 40.7975 0.304443L40.7947 0.306126ZM39.903 9.65923H39.833C39.6754 9.65923 39.6478 9.64241 39.6433 9.6368C39.6404 9.63288 40.6778 5.10997 40.6783 5.1038C40.7049 4.97315 40.7038 4.89801 40.6224 4.85371C40.5185 4.79651 39.004 4.00363 39.004 4.00363C38.9864 3.99443 38.9717 3.98053 38.9616 3.96349C38.9516 3.94644 38.9465 3.92694 38.947 3.90718C38.9477 3.87838 38.9598 3.85099 38.9805 3.83088C39.0013 3.81077 39.0292 3.79951 39.0582 3.79952H41.4531C42.1985 3.82195 42.6141 4.48418 42.5944 5.61519C42.5599 7.57273 41.6225 9.59082 39.903 9.65979V9.65923Z" fill="#00E559"/>
<path d="M13.8402 7.89523V7.90252L13.2331 10.5189C13.2004 10.667 13.0513 10.7752 12.8796 10.7752H12.1461C12.1196 10.7753 12.0939 10.7839 12.0728 10.7996C12.0516 10.8154 12.0361 10.8375 12.0286 10.8627C11.3521 13.1415 10.4362 14.7076 9.22659 15.648C8.19771 16.4487 6.9294 16.8222 5.23475 16.8222C3.71232 16.8222 2.6857 16.336 1.81494 15.376C0.66409 14.1076 0.188615 12.0307 0.47661 9.52866C0.996131 4.83136 3.44974 0.0914388 8.17399 0.0914388C9.61115 0.0791026 10.7394 0.519282 11.5243 1.39796C12.3544 2.32766 12.7757 3.72726 12.778 5.55975C12.7759 5.64008 12.7424 5.71644 12.6845 5.77258C12.6265 5.82871 12.5489 5.86019 12.4679 5.86031H9.00636C8.9457 5.85846 8.88806 5.83359 8.84531 5.79083C8.80256 5.74806 8.77794 5.69065 8.77652 5.63041C8.74829 4.36314 8.36994 3.74633 7.61777 3.74633C6.29073 3.74633 5.50806 5.53508 5.09301 6.52647C4.51306 7.91149 4.21773 9.41595 4.27589 10.9142C4.30356 11.6118 4.4165 12.5925 5.08341 12.9991C5.67464 13.3591 6.5183 13.1202 7.02935 12.7215C7.53984 12.3223 7.95094 11.632 8.12373 11.0023C8.14802 10.9148 8.14971 10.847 8.12656 10.8167C8.10228 10.7853 8.03508 10.778 7.98369 10.778H7.09486C7.04781 10.7781 7.0013 10.7681 6.95858 10.7485C6.91585 10.7289 6.87795 10.7003 6.84752 10.6647C6.82417 10.6369 6.80759 10.6041 6.79907 10.5689C6.79055 10.5337 6.79031 10.497 6.79839 10.4617L7.406 7.84084C7.43593 7.70682 7.55847 7.60533 7.70925 7.58738V7.58065H13.5426C13.5561 7.58065 13.5702 7.58065 13.5832 7.58346C13.7346 7.60308 13.8413 7.74271 13.8385 7.89523H13.8402Z" fill="#00E559"/>
</g>
<defs>
<clipPath id="clip0_1728_120">
<rect width="46.136" height="16.8221" fill="white" transform="translate(0.394531)"/>
</clipPath>
</defs>
</svg>
